HIERARCHY
ROOT Hips
{
 OFFSET 0.000000 0.000000 0.000000
 CHANNELS 6 Xposition Yposition Zposition Yrotation Xrotation Zrotation
 JOINT Chest
 {
  OFFSET 0.000000 12.953391 -0.028419
  CHANNELS 3 Yrotation Xrotation Zrotation
  JOINT Chest2
  {
   OFFSET 0.000000 10.280254 0.051622
   CHANNELS 3 Yrotation Xrotation Zrotation
   JOINT Chest3
   {
    OFFSET 0.000000 9.287180 0.000000
    CHANNELS 3 Yrotation Xrotation Zrotation
    JOINT Chest4
    {
     OFFSET 0.000000 9.287180 0.000000
     CHANNELS 3 Yrotation Xrotation Zrotation
     JOINT Neck
     {
      OFFSET 0.000000 13.296264 0.000000
      CHANNELS 3 Yrotation Xrotation Zrotation
      JOINT Head
      {
       OFFSET 0.000000 8.959264 0.099003
       CHANNELS 3 Yrotation Xrotation Zrotation
       End Site
       {
        OFFSET 0.000000 17.121337 0.039303
       }
      }
     }
     JOINT RightCollar
     {
      OFFSET -3.193511 7.451388 0.000000
      CHANNELS 3 Yrotation Xrotation Zrotation
      JOINT RightShoulder
      {
       OFFSET -15.792092 0.000000 0.000000
       CHANNELS 3 Yrotation Xrotation Zrotation
       JOINT RightElbow
       {
        OFFSET -31.151839 0.000000 0.000000
        CHANNELS 3 Yrotation Xrotation Zrotation
        JOINT RightWrist
        {
         OFFSET -25.536298 0.000000 0.002321
         CHANNELS 3 Yrotation Xrotation Zrotation
         End Site
         {
          OFFSET -19.133213 0.000000 0.000000
         }
        }
       }
      }
     }
     JOINT LeftCollar
     {
      OFFSET 3.193511 7.451388 0.000000
      CHANNELS 3 Yrotation Xrotation Zrotation
      JOINT LeftShoulder
      {
       OFFSET 15.792092 0.000000 0.000000
       CHANNELS 3 Yrotation Xrotation Zrotation
       JOINT LeftElbow
       {
        OFFSET 31.151839 0.000000 0.000000
        CHANNELS 3 Yrotation Xrotation Zrotation
        JOINT LeftWrist
        {
         OFFSET 25.536298 0.000000 0.002321
         CHANNELS 3 Yrotation Xrotation Zrotation
         End Site
         {
          OFFSET 19.133213 0.000000 0.000000
         }
        }
       }
      }
     }
    }
   }
  }
 }
 JOINT RightHip
 {
  OFFSET -10.745749 0.139252 0.014209
  CHANNELS 3 Yrotation Xrotation Zrotation
  JOINT RightKnee
  {
   OFFSET 0.000000 -43.743899 -0.006071
   CHANNELS 3 Yrotation Xrotation Zrotation
   JOINT RightAnkle
   {
    OFFSET 0.000000 -43.214199 0.089931
    CHANNELS 3 Yrotation Xrotation Zrotation
    JOINT RightToe
    {
     OFFSET 0.000000 -9.699830 19.151588
     CHANNELS 3 Yrotation Xrotation Zrotation
     End Site
     {
      OFFSET 0.000000 -1.292898 4.893873
     }
    }
   }
  }
 }
 JOINT LeftHip
 {
  OFFSET 10.745749 0.139252 0.014209
  CHANNELS 3 Yrotation Xrotation Zrotation
  JOINT LeftKnee
  {
   OFFSET 0.000000 -43.743899 -0.006071
   CHANNELS 3 Yrotation Xrotation Zrotation
   JOINT LeftAnkle
   {
    OFFSET 0.000000 -43.214199 0.089931
    CHANNELS 3 Yrotation Xrotation Zrotation
    JOINT LeftToe
    {
     OFFSET 0.000000 -9.699830 19.151588
     CHANNELS 3 Yrotation Xrotation Zrotation
     End Site
     {
      OFFSET 0.000000 -1.292898 4.893873
     }
    }
   }
  }
 }
}
MOTION
Frames: 15
Frame Time: 0.016667
0.000000	0.000000	0.000000	0.000000	0.000000	0.000000	1.122915	10.958617	-6.911132	0.748790	15.500978	-10.796575	0.078510	19.967211	-14.085385	-0.814076	23.393202	-16.772019	3.218255	42.494371	-24.853135	29.079174	46.277092	-26.627727	1.945716	12.540856	-15.600142	6.544643	-21.615704	14.959515	-0.694356	-3.398521	0.153233	-9.785114	10.962710	-7.166001	-5.323749	10.913201	-22.041539	8.995740	-1.422371	-60.950920	7.717672	6.815921	-53.257538	19.469551	6.675717	-47.350652	-8.119854	-24.385376	6.694873	-2.133263	34.024646	0.282860	7.582311	34.433531	1.745227	7.006433	23.400982	-0.890699	3.470947	-14.839561	3.245314	-0.130499	15.059428	3.670299	-18.064584	8.914152	-2.577633	-17.896477	3.489005	-2.896878
-0.240655	0.259650	-1.178591	1.240930	-0.210647	0.353709	0.115997	10.060485	-0.928890	-0.227054	13.737854	-3.703937	-0.521207	16.286348	-4.320012	-0.801724	19.544752	-4.984945	-3.483137	44.843601	-7.207689	-8.956096	57.458706	-15.497545	6.552476	16.700518	0.884547	3.203005	-13.345131	41.327030	1.306596	4.514513	26.342450	10.684310	15.638916	29.880872	-0.136999	12.514608	-10.848931	3.103918	-2.103681	-46.445576	10.500334	1.085827	-38.319774	28.351810	0.665613	-35.452709	-5.764841	-19.961312	6.159465	0.224758	33.899528	2.374369	13.849096	42.413187	8.174315	11.429921	33.547225	5.227719	1.488746	-13.861100	1.886276	-0.686306	9.354636	1.160414	-21.676845	9.183682	-5.448535	-21.557539	4.158435	-4.040374
0.248050	0.843898	-2.701922	2.605677	-0.245351	1.662161	0.568418	8.772401	-0.206939	0.628736	12.934772	-0.964244	0.743160	16.367209	-0.921542	0.621571	19.698458	-1.258194	-0.198202	44.900938	-3.206449	-1.696247	58.012217	-6.608080	6.981295	15.961283	4.321396	2.164597	-14.355867	44.638536	-0.623843	3.198559	29.992310	9.050297	12.666261	33.361208	-0.081718	13.285548	-7.245914	1.737235	-3.518730	-42.762414	8.829482	-0.002747	-34.768399	25.547139	-1.696300	-31.705380	-5.254997	-19.759228	4.835155	-1.368719	32.021477	1.261466	10.146498	39.822829	4.911550	8.817639	28.836797	3.293630	2.154742	-13.108238	-0.826450	-1.529764	10.501333	-0.614914	-20.413579	7.827710	-4.969504	-20.292273	2.886873	-3.758577
0.612744	1.291147	-4.060782	3.891960	-0.456114	2.661426	1.216399	8.631205	-0.472328	1.454765	13.064804	-0.811506	1.737231	16.652183	-0.819932	1.764650	20.076452	-1.251408	1.032704	45.181384	-3.886966	1.331892	58.024365	-5.973489	7.871393	16.328333	4.303107	3.159409	-14.906643	44.087683	0.336587	2.968927	29.640893	9.908018	12.912798	32.313239	0.439640	13.077663	-7.286124	2.970956	-3.955873	-43.375255	10.333311	-0.122656	-35.470997	26.641073	-1.593780	-32.436162	-5.271576	-19.547960	4.402331	-1.822397	32.767289	1.521094	9.597050	42.027771	4.582406	8.416434	30.365591	3.464957	2.513263	-13.256225	-1.461103	-1.539966	9.373048	-1.111964	-20.766099	7.568751	-5.589359	-20.524214	2.800632	-4.315266
0.912679	1.950863	-5.612855	5.218255	-0.444024	3.406776	1.748533	8.461603	-0.858839	2.077538	13.178659	-0.704559	2.460097	16.935956	-0.747314	2.596589	20.433101	-1.203765	1.383941	45.478158	-4.421279	1.457843	57.963894	-6.059337	8.533181	16.680645	4.298325	4.103751	-15.534697	43.502752	1.249169	2.669294	29.419743	10.874902	13.121801	31.565343	0.570272	12.937299	-7.296304	3.996612	-4.326132	-43.795454	11.536390	-0.170405	-35.814471	27.490953	-1.641722	-32.780297	-5.590683	-19.592288	3.911908	-2.923497	33.188895	1.441623	7.436724	42.860160	2.865523	6.954726	31.234079	3.132284	2.921455	-13.181316	-2.096450	-1.434850	9.120557	-1.599576	-20.344492	7.454963	-5.427549	-20.052425	2.496402	-4.053755
1.089103	2.857579	-7.350781	6.411052	-0.098200	3.823838	2.008626	7.756759	-11.782557	1.696996	12.725441	-9.763947	1.083189	19.860272	-15.607160	2.365023	23.316461	-18.583119	3.325686	46.561400	-42.791986	42.614286	64.907325	-40.962666	6.312873	15.337816	-17.035178	33.958419	-14.788239	6.787500	21.432806	4.005612	-12.443606	16.758326	6.880607	-15.695505	-1.108892	6.302960	-29.062471	17.979096	2.643788	-82.399319	32.886758	0.906796	-79.716434	37.709368	2.450875	-83.333847	-7.040807	-11.531744	0.489446	-5.355251	25.355125	2.051283	4.714330	30.111018	4.755753	4.650920	16.425243	3.086810	4.776670	-12.632807	-1.154255	1.767946	28.520374	-0.462146	-27.066132	25.629693	-19.379951	-26.605708	21.521322	-19.853438
1.154554	3.651980	-9.138159	4.657572	1.487774	0.180716	3.964239	7.737530	-12.599556	3.479045	12.952460	-8.927275	3.027926	21.063200	-14.289950	5.264942	24.869285	-16.649270	0.145368	48.691545	-43.563832	30.999399	66.470937	-40.139644	9.434148	19.800354	-14.427687	35.150566	-13.517826	7.608434	23.023458	1.182966	-9.641649	25.292735	4.860851	-11.736312	0.940886	8.953819	-27.776265	18.786808	1.196129	-81.160032	40.611851	-0.429158	-80.018157	46.936781	2.263708	-86.753492	-9.976726	-13.994570	-2.100606	-11.913932	20.489896	-0.112228	-2.893372	31.708869	3.014081	-1.767753	19.212813	3.228573	4.627658	-10.225289	-1.378686	-0.564647	28.927175	-0.281010	-31.923487	29.182233	-19.855064	-31.058183	21.951122	-19.888043
1.514612	4.958814	-11.165787	1.986231	4.107987	-4.629833	8.810887	13.370089	-16.869103	10.517959	19.222633	-9.104769	11.548769	31.140202	-14.912905	15.036113	37.111050	-18.531065	5.609672	58.798306	-59.709437	60.312500	76.108908	-39.619544	16.228951	31.365276	-10.940337	38.214622	-7.107817	18.941485	29.642609	8.562980	3.761791	48.548228	4.418063	-1.403730	1.683657	12.673920	-34.414388	25.439674	2.831959	-85.846566	46.844077	1.818976	-82.907537	44.508126	3.635847	-88.471153	-19.452343	-22.509357	-1.349328	-21.372423	12.666216	1.215921	20.718129	38.788284	39.575584	14.170613	23.765313	28.733410	0.766474	-8.751985	-7.447394	-19.019799	44.720761	-13.388531	-58.167227	41.249961	-26.669070	-53.926154	22.104775	-17.514217
3.458781	7.441713	-13.540583	0.213654	8.183512	-12.830793	9.336418	11.648570	-18.428537	10.341846	18.469837	-5.578350	11.131436	32.557855	-10.980692	15.747547	38.829072	-14.528458	-0.016373	58.718551	-60.450834	41.970643	74.078320	-47.581282	17.542942	32.124497	-7.287212	37.235156	-9.551785	19.719714	30.100389	3.746500	5.641129	53.410619	0.252656	-3.054700	1.616672	15.221251	-31.568026	28.535565	0.551188	-82.604799	50.147747	-0.727584	-79.951140	49.274345	0.493264	-86.850243	-21.224678	-27.347341	-2.613236	-24.790566	11.310698	-0.039393	12.844054	38.820441	36.685785	10.556509	26.224871	28.653540	3.641502	-15.429782	-8.743844	-15.876653	51.412120	-13.853322	-50.616558	55.528902	-21.521216	-45.503250	31.729576	-14.959006
5.893125	10.504782	-16.145250	-3.896631	12.353948	-23.749851	10.662431	11.744279	-18.223905	11.745028	18.920064	-3.733267	12.848954	33.050285	-8.383391	18.170485	39.616979	-11.440507	1.849598	59.696618	-57.538995	43.741976	72.684473	-42.660253	19.843503	33.342387	-4.141238	35.443986	-10.175497	21.620525	28.892377	0.563264	8.821063	52.643996	-2.866088	-0.834482	1.848853	17.755911	-29.073359	27.991419	-1.258711	-79.802645	50.757371	-1.649172	-77.218764	49.452717	-0.487597	-85.179481	-22.180161	-30.165368	-3.816306	-27.226730	6.167133	-0.614008	7.816658	37.435641	33.648816	7.279409	26.481920	25.658332	3.942566	-14.014004	-9.290576	-16.964675	50.797297	-14.513084	-53.855881	55.913564	-22.766636	-47.471065	30.738007	-14.241838
9.227356	13.388538	-18.560302	-8.956888	16.187129	-35.603219	10.223304	11.339200	-16.866952	10.954576	18.403617	-3.785250	11.874462	31.221885	-8.184001	16.989426	37.567888	-11.084640	2.769711	57.992456	-52.946039	39.201242	70.257007	-42.604601	19.157102	31.940712	-4.118947	33.435643	-10.859581	20.827495	26.942248	-1.093115	8.127296	48.790213	-2.833946	-1.244317	1.724831	17.916019	-27.698213	25.862900	-2.427822	-77.843089	48.093270	-2.616410	-74.989664	48.195809	-1.359583	-82.481525	-20.932504	-30.015437	-3.590160	-25.504239	5.024106	-1.005746	1.120047	32.546370	25.355303	2.498817	23.830960	19.640242	3.714146	-14.187871	-7.911119	-14.366628	49.182678	-11.565085	-46.227140	54.258975	-14.734673	-43.377099	30.463326	-10.337555
13.060196	15.689020	-20.608284	-14.753533	18.884313	-47.030221	9.171970	11.303697	-14.996941	9.433989	17.917858	-5.685424	10.076712	28.575353	-10.058255	14.561133	34.481213	-12.878006	3.381976	55.775650	-49.039277	35.360379	68.727653	-43.681695	17.378810	29.736417	-6.253190	31.903953	-10.767614	18.943701	25.101313	-1.194475	5.437961	43.986593	-1.219915	-2.697471	1.911355	16.964179	-27.624112	23.163471	-1.947465	-76.740504	44.614855	-2.477133	-73.567493	46.784675	-0.737770	-79.715777	-19.456793	-27.704524	-2.302132	-22.650502	6.001187	-1.080898	-3.704985	26.544700	18.097576	-1.749761	19.795723	14.302921	2.292221	-13.332884	-5.872757	-12.483856	45.334162	-8.366915	-40.939333	47.340332	-8.180737	-40.935247	27.351004	-7.043671
16.940748	17.041905	-22.243246	-20.479472	20.387010	-56.613152	7.428385	10.984447	-12.835346	7.427118	16.881401	-8.051109	7.879444	25.142214	-12.429123	11.483651	30.378187	-15.087196	3.808308	52.695969	-45.063979	32.088493	66.909709	-44.945733	14.856239	26.442448	-9.411700	30.766670	-10.763298	16.001257	23.052224	-0.760144	0.738184	37.571840	1.008211	-6.053747	2.269105	14.906890	-27.708743	20.968944	-0.584945	-75.798737	40.941885	-1.836132	-72.268634	45.644383	0.484143	-76.426728	-17.327617	-23.828596	-0.701890	-18.817537	9.408732	-1.042144	-6.024046	21.014896	12.142457	-4.373269	15.830482	9.945724	0.597714	-13.091892	-3.847108	-10.709743	39.883060	-5.358493	-37.339175	37.695375	-4.036144	-38.834119	23.120781	-5.016501
20.351373	17.517372	-23.491037	-25.438391	20.714559	-63.576273	5.488164	10.694353	-10.856116	5.777995	15.736727	-9.975860	6.189203	22.165099	-14.243794	8.785429	26.696440	-16.637173	4.596416	49.839899	-41.015655	31.461467	65.442772	-44.568426	12.698878	22.986940	-11.975546	30.098778	-11.239523	14.055605	21.282170	-0.443285	-3.116870	31.213618	2.725048	-8.416586	2.975107	12.507667	-27.338494	19.306309	0.514886	-74.917901	37.314817	-1.199798	-71.079212	44.293130	1.705082	-73.031806	-15.318019	-20.193514	0.876664	-15.354305	13.189181	-0.995103	-5.918713	17.789806	8.434093	-4.952292	13.235364	7.110907	-0.984490	-12.592819	-2.180906	-9.581690	34.848494	-3.351374	-35.327701	29.281695	-3.190577	-37.002914	19.107422	-4.450585
22.931342	17.300205	-24.474076	-28.994680	20.197551	-67.852370	3.749018	10.359869	-9.307268	4.537272	14.619184	-11.228030	4.972311	19.772846	-15.340757	6.707506	23.814757	-17.513648	5.617645	47.224458	-36.914207	31.645875	64.063012	-43.021031	11.107309	19.987110	-13.542036	29.776432	-12.280582	13.673230	20.283997	0.178000	-4.949924	25.919377	5.024123	-8.729465	3.672515	10.377195	-26.716003	18.144980	1.077872	-74.047955	34.480775	-0.616639	-69.922918	43.278270	2.519929	-69.893156	-13.475338	-17.797675	2.284231	-11.801339	15.944214	-0.794508	-2.293301	17.215147	7.128235	-2.008027	12.490199	5.826147	-2.224612	-11.741026	-0.835218	-8.589790	31.770552	-2.193251	-33.901952	24.886496	-5.227803	-35.170053	16.496326	-5.270042
